<svg xmlns="http://www.w3.org/2000/svg" xmlns:xlink="http://www.w3.org/1999/xlink"><symbol id="sprite-form-arrow-icon" fill="none" viewBox="0 0 8 8"><g clip-path="url(#a)"><path stroke="#316DC2" stroke-width="1.6" d="m.8 7.2 6.4-6.4m0 0h-6.36m6.36 0v6.36"/></g><defs><clipPath id="a"><path fill="#fff" d="M0 0h8v8h-8z"/></clipPath></defs></symbol><use xlink:href="#sprite-form-arrow-icon" width="8" height="8"/><view id="sprite-form-arrow-icon-view" viewBox="0 0 8 8"/><symbol id="sprite-logo-icon" fill="none" viewBox="0 0 30 30"><g clip-path="url(#a)"><path fill="#316DC2" d="M.92 8.8c-.85.6-1.35 1.9-.41 3.43s14.38 11.9 14.88 12.2.98.33 2.24-.68 11.74-8.88 12-9.12c.44-.38.54-1.3 0-1.73 0 0-12.7 9.5-13.11 9.89s-1.06-.24-.94-1.06.2-.9 1.82-2.16l11.18-8.48c.47-.35.48-.96-.3-1.5l-13.01-9.27c-.4-.3-.93-.55-1.73.02-.81.58-11.06 7.35-12.62 8.46"/><path fill="#316DC2" d="M15.39 25.43c-.33-.19-6.23-4.71-10.51-8.24v7.35c0 5.37 15.12 8.24 20.13 1.64v-7.03a764 764 0 0 0-7.38 5.61c-1.26 1-1.75.96-2.24.67"/><path fill="#98B8E6" d="M21.78 17.37s2.25 1.13 2.41 5.68l-1.09-.3-.87 1.85c-.37-4.98-2.37-5.7-2.37-5.7z"/></g><defs><clipPath id="a"><path fill="#fff" d="M0 0h30v30h-30z"/></clipPath></defs></symbol><use xlink:href="#sprite-logo-icon" width="30" height="30" y="8"/><view id="sprite-logo-icon-view" viewBox="0 8 30 30"/><symbol id="sprite-map-pin-icon" fill="none" viewBox="0 0 18 24"><path fill="#316DC2" fill-rule="evenodd" d="M4.68 1.12a8.9 8.9 0 0 1 8.77.07 8.7 8.7 0 0 1 4.28 7.52c-.06 3.05-1.8 5.92-3.98 8.13a23 23 0 0 1-4.2 3.39 2 2 0 0 1-.5.17 1 1 0 0 1-.49-.14 23 23 0 0 1-6.03-5.46 11 11 0 0 1-2.26-6.24 8.5 8.5 0 0 1 4.4-7.44m1.57 8.71a3 3 0 0 0 2.74 1.8 3 3 0 0 0 2.1-.84 3 3 0 0 0 .87-2.06 2.9 2.9 0 0 0-1.83-2.69 3 3 0 0 0-3.23.63 2.9 2.9 0 0 0-.65 3.16" clip-rule="evenodd"/><path fill="#316DC2" d="M15.23 22.8c0 .66-2.79 1.2-6.23 1.2s-6.23-.54-6.23-1.2 2.79-1.2 6.23-1.2 6.23.54 6.23 1.2"/></symbol><use xlink:href="#sprite-map-pin-icon" width="18" height="24" y="38"/><view id="sprite-map-pin-icon-view" viewBox="0 38 18 24"/><symbol id="sprite-minus-icon" fill="none" viewBox="0 0 20 20"><g clip-path="url(#a)"><path stroke="#316DC2" d="M1 10h18"/></g><defs><clipPath id="a"><path fill="#fff" d="M1 9h18v2h-18z"/></clipPath></defs></symbol><use xlink:href="#sprite-minus-icon" width="20" height="20" y="62"/><view id="sprite-minus-icon-view" viewBox="0 62 20 20"/><symbol id="sprite-ok-icon" fill="none" viewBox="0 0 8 12"><path fill="#fff" d="M4 1.97a1.24 1.24 0 1 1 0 2.47c-.7 0-1.26-.56-1.26-1.23 0-.68.56-1.24 1.26-1.24m0 4.22a3 3 0 0 0 3.04-2.98c0-1.65-1.36-2.99-3.04-2.99s-3.04 1.34-3.04 2.99a3 3 0 0 0 3.04 2.98m1.23 2.43a6 6 0 0 0 1.77-.72.86.86 0 0 0 .28-1.2.9.9 0 0 0-1.23-.28 3.9 3.9 0 0 1-4.1 0 .9.9 0 0 0-1.23.28.86.86 0 0 0 .28 1.2 6 6 0 0 0 1.77.72l-1.7 1.67a.86.86 0 0 0 0 1.23.9.9 0 0 0 1.26 0l1.67-1.64 1.67 1.64a.9.9 0 0 0 1.26 0 .86.86 0 0 0 0-1.23z"/></symbol><use xlink:href="#sprite-ok-icon" width="8" height="12" y="82"/><view id="sprite-ok-icon-view" viewBox="0 82 8 12"/><symbol id="sprite-pagination-arrow-icon" fill="none" viewBox="0 0 10 10"><g clip-path="url(#a)"><path stroke="#316DC2" stroke-width="1.667" d="M0 4.74h8.33m0 0-4.14 4.43m4.14-4.43-4.14-3.9"/></g><defs><clipPath id="a"><path fill="#fff" d="M0 0h10v10h-10z"/></clipPath></defs></symbol><use xlink:href="#sprite-pagination-arrow-icon" width="10" height="10" y="94"/><view id="sprite-pagination-arrow-icon-view" viewBox="0 94 10 10"/><symbol id="sprite-plus-icon" fill="none" viewBox="0 0 20 20"><g clip-path="url(#a)"><path stroke="#fff" d="M10 1v9m0 0v9m0-9h-9m9 0h9"/></g><defs><clipPath id="a"><path fill="#fff" d="M1 1h18v18h-18z"/></clipPath></defs></symbol><use xlink:href="#sprite-plus-icon" width="20" height="20" y="104"/><view id="sprite-plus-icon-view" viewBox="0 104 20 20"/><symbol id="sprite-reddit-icon" fill="none" viewBox="0 0 12 12"><path fill="#fff" d="M7.02.49c-.33 0-.65.18-.85.43q-.29.4-.4.91a8 8 0 0 0-.18 1.66 5.4 5.4 0 0 0-2.51.82q-.46-.4-.97-.4c-.38 0-.75.18-1.01.53a2 2 0 0 0 .14 2.44q-.06.3-.07.62c0 2.22 2.16 4.02 4.83 4.02s4.83-1.8 4.83-4.02q0-.32-.07-.62a2 2 0 0 0 .14-2.44 1.3 1.3 0 0 0-1-.53q-.53 0-.97.4a5.4 5.4 0 0 0-2.5-.82c0-.5.04-1 .13-1.39q.1-.37.2-.51c.1-.14.14-.14.26-.14.27 0 .31.1.47.32q.12.17.34.4c.22.22.38.25.62.25v-.97c-.07 0-.08 0-.13-.04l-.2-.28c-.19-.26-.55-.65-1.1-.65m2.66.1c-.64 0-1.15.6-1.15 1.35s.51 1.36 1.15 1.36 1.15-.6 1.15-1.36c0-.75-.52-1.36-1.15-1.36m0 .49c.4 0 .74.4.74.87 0 .49-.33.88-.74.88s-.74-.4-.74-.88.33-.87.74-.87m-3.68 3.19c2.26 0 4.18 1.49 4.18 3.25s-1.92 3.25-4.18 3.25-4.18-1.5-4.18-3.25c0-1.76 1.92-3.25 4.18-3.25m-3.88.44a1 1 0 0 1 .34.09 4 4 0 0 0-.96 1.27c-.15-.38-.1-.84.08-1.1a.7.7 0 0 1 .54-.26m7.76 0q.32 0 .54.27c.19.25.23.71.08 1.09a4 4 0 0 0-.96-1.27 1 1 0 0 1 .34-.1zm-5.51 1.2c-.41 0-.75.4-.75.88s.34.88.74.88c.41 0 .75-.4.75-.88s-.34-.88-.74-.88m3.27 0c-.41 0-.75.4-.75.88s.34.88.74.88c.41 0 .75-.4.75-.88s-.34-.88-.74-.88m-3.67 2.98a2.2 2.2 0 0 0 2.03 1.25c.97 0 1.78-.61 2.04-1.25-.47.36-1.21.6-2.04.6s-1.56-.24-2.03-.6"/></symbol><use xlink:href="#sprite-reddit-icon" width="12" height="12" y="124"/><view id="sprite-reddit-icon-view" viewBox="0 124 12 12"/><symbol id="sprite-star-icon" fill="none" viewBox="0 0 18 22"><g clip-path="url(#a)"><path fill="#fff" d="m9 0 3.01 5.48 5.99.02-2.97 5.5 2.97 5.5-5.99.03-3.01 5.47-3.01-5.47-5.99-.03 2.97-5.5-2.97-5.5 5.99-.02z"/></g><defs><clipPath id="a"><path fill="#fff" d="M0 0h18v22h-18z"/></clipPath></defs></symbol><use xlink:href="#sprite-star-icon" width="18" height="22" y="136"/><view id="sprite-star-icon-view" viewBox="0 136 18 22"/><symbol id="sprite-vk-icon" fill="none" viewBox="0 0 12 8"><path fill="#fff" d="M11.68 6.47c-.03-.05-.23-.45-1.15-1.27-.97-.86-.84-.72.33-2.2q1.04-1.34.9-1.7c-.08-.22-.6-.16-.6-.16h-1.74s-.13 0-.23.04c-.09.06-.15.18-.15.18s-.28.7-.64 1.3c-.78 1.25-1.09 1.32-1.21 1.24-.3-.18-.22-.73-.22-1.12 0-1.21.19-1.72-.38-1.85a3 3 0 0 0-.81-.08c-.62 0-1.15 0-1.44.14-.2.1-.35.3-.26.31.12.02.38.07.51.25.18.23.18.75.18.75s.1 1.43-.24 1.61c-.24.12-.56-.13-1.25-1.27-.35-.58-.62-1.23-.62-1.23s-.05-.12-.14-.18a1 1 0 0 0-.27-.1h-1.65s-.25.01-.34.12c-.08.09 0 .28 0 .28s1.29 2.89 2.75 4.35c1.34 1.33 2.87 1.25 2.87 1.25h.69s.2-.03.31-.14c.1-.1.1-.29.1-.29s-.02-.88.41-1.01.97.85 1.55 1.23c.44.29.77.23.77.23l1.54-.02s.8-.05.43-.66"/></symbol><use xlink:href="#sprite-vk-icon" width="12" height="8" y="158"/><view id="sprite-vk-icon-view" viewBox="0 158 12 8"/></svg>